<svg width="728" height="267" viewBox="0 0 728 267" fill="none" xmlns="http://www.w3.org/2000/svg">
<path fill-rule="evenodd" clip-rule="evenodd" d="M564.086 0.90391C549.328 3.80091 540.239 20.4919 544.456 36.9529C547.367 48.3179 554.901 57.9199 567.082 65.7939L573.4 69.8769L545.894 69.1939L518.388 68.5109L516.125 71.3869C513.968 74.1289 513.878 74.9549 514.181 89.1319C514.486 103.365 514.601 104.082 516.861 105.91C518.258 107.04 520.773 107.819 523.022 107.819C526.038 107.819 527.357 107.184 529.411 104.742C531.72 101.999 532 100.807 532 93.7419V85.8189H621.006H710.012L709.756 165.069L709.5 244.319L635.272 244.819L561.044 245.319L558.323 248.041C554.917 251.447 554.739 257.002 557.932 260.196C560.054 262.318 560.095 262.319 636.277 262.598C721.424 262.909 718.367 263.138 723.767 256.058L726.5 252.475L726.766 162.979L727.032 73.4819L724.766 71.0199L722.5 68.5579L696.625 69.1999L670.749 69.8419L676.699 65.4619C694.306 52.4999 701.893 37.9289 698.915 22.7919C694.963 2.70591 675.56 -5.5471 655.347 4.2609C643.251 10.1299 635.84 18.3879 626.071 36.8849L621.183 46.1379L616.957 37.7289C606.023 15.9719 594.038 4.37192 578.885 0.878916C573.772 -0.300084 570.192 -0.29409 564.086 0.90391ZM579.3 21.4669C585.041 24.4239 589.075 28.0639 593.457 34.2449C598.041 40.7089 603.333 50.6769 605.615 57.1439L607.002 61.0749L603.036 60.4409C589.185 58.2259 570.399 47.6639 564.891 38.9939C559.915 31.1629 559.861 26.7059 564.686 22.2339C567.844 19.3079 574.435 18.9619 579.3 21.4669ZM678.314 22.2339C689.43 32.5359 672.766 51.3819 646.02 58.7569C635.748 61.5889 635.812 61.6039 637.513 56.7819C642.377 42.9949 654.565 26.2169 662.927 21.7959C668.174 19.0219 675.06 19.2179 678.314 22.2339ZM2.22301 95.3759L0 96.9319L0.0149994 141.626C0.0309994 190.922 0.332994 194.036 6.16499 204.978C13.697 219.11 28.78 226.789 49 226.789C74.974 226.789 91.249 214.959 97.107 191.819C98.194 187.528 98.5 176.573 98.5 141.981V97.6429L96.024 95.6379C93.899 93.9169 92.381 93.6809 85.323 93.9759C80.34 94.1839 76.587 94.8309 75.8 95.6179C74.788 96.6279 74.389 106.816 73.998 141.618C73.433 191.886 73.459 191.702 65.89 198.181C61.292 202.117 56.193 203.819 49 203.819C41.234 203.819 36.031 201.89 31.443 197.309C24.323 190.199 24 187.694 24 139.503C24 90.2019 24.933 93.8189 12.223 93.8189C6.80201 93.8189 3.77201 94.2909 2.22301 95.3759ZM647.731 103.569C646.863 104.531 645.167 107.958 643.962 111.184C641.2 118.576 636.341 123.486 627.423 127.896L620.5 131.319L620.204 138.661C620.021 143.214 620.353 146.539 621.077 147.411C621.899 148.402 624.561 148.819 630.055 148.819H637.865L638.182 178.069C638.477 205.222 638.649 207.642 640.583 211.819C643.059 217.167 648.36 222.088 653.664 223.963C658.61 225.711 677.653 225.767 680.706 224.042C684.305 222.009 686.343 211.196 683.965 206.753C683.083 205.105 681.821 204.819 675.43 204.819C666.518 204.819 663.499 203.276 662.024 197.966C661.467 195.96 661.009 184.097 661.006 171.603L661 148.887L671.739 148.603C682.448 148.32 682.481 148.311 683.841 145.469C684.766 143.537 684.998 140.955 684.561 137.46C683.546 129.339 683.515 129.319 671.675 129.319H661.274L660.721 117.346C660.224 106.589 659.945 105.193 657.973 103.596C655.16 101.318 649.775 101.304 647.731 103.569ZM154 128.189C147.554 130.061 143.39 132.419 138.386 137.031L134 141.074V136.503C134 130.592 131.688 128.814 124.027 128.833C116.164 128.852 114.279 129.581 113.063 133.068C111.437 137.733 111.645 218.557 113.291 221.819C114.474 224.163 115.104 224.337 123.375 224.609C128.699 224.785 132.718 224.468 133.509 223.811C134.517 222.975 134.923 215.964 135.261 193.521C135.761 160.346 136.066 158.691 142.773 152.788C152.838 143.928 168.164 145.696 173.5 156.332C175.331 159.983 175.542 162.897 176 190.918C176.39 214.81 176.801 221.879 177.872 223.168C179.804 225.492 195.122 225.554 197.429 223.248C198.793 221.883 199 217.359 199 188.853C199 158.73 198.834 155.491 196.977 149.48C194.388 141.097 187.418 133.12 179.77 129.785C173.384 127 160.783 126.22 154 128.189ZM397 128.193C390.283 130.042 385.981 132.395 381.207 136.83C378.845 139.024 376.708 140.819 376.457 140.819C376.205 140.819 376 138.82 376 136.376C376 130.347 373.731 128.819 364.777 128.819C353.203 128.819 354 125.286 354 176.596C354 214.6 354.205 220.667 355.557 222.596C356.955 224.593 357.967 224.819 365.5 224.819C377.518 224.819 377 226.138 377 195.539C377 166.08 377.482 163.375 383.912 156.748C389.047 151.455 393.305 149.833 402.095 149.825C409.857 149.817 411 148.363 411 138.49C411 127.179 408.191 125.112 397 128.193ZM445.251 128.364C437.879 130.349 432.552 133.267 428.012 137.807C422.77 143.049 420.77 147.219 420.623 153.212C420.515 157.585 420.814 158.382 423 159.558C424.57 160.403 427.704 160.766 431.425 160.534C436.274 160.233 437.636 159.744 438.925 157.841C442.803 152.116 447.732 147.968 452.036 146.807C457.459 145.345 465.081 146.112 469.347 148.55C472.952 150.611 476.503 157.221 477.414 163.569L478.024 167.819H467.236C432.111 167.819 416.312 176.605 415.173 196.77C414.62 206.544 416.243 211.193 422.335 217.285C428.31 223.259 433.887 225.571 444.5 226.473C456.766 227.515 467.856 224.102 475.25 217.01L479 213.413L479.014 216.366C479.039 221.835 480.066 223.686 483.749 224.901C488.607 226.504 498.061 225.453 499.781 223.118C500.834 221.688 501.041 214.443 500.794 187.819C500.499 156.156 500.363 154.028 498.316 149.014C493.876 138.138 484.389 130.478 472.201 127.928C465.016 126.425 451.65 126.641 445.251 128.364ZM562.716 127.865C554.557 129.121 549.221 131.756 543.742 137.234L539 141.977V137.589C539 130.699 537.478 129.433 528.659 128.987C521.637 128.633 520.945 128.783 518.539 131.189L515.957 133.771L516.229 198.376C516.545 273.683 515.103 266.071 528.963 265.604C536.875 265.338 537.532 265.151 538.709 262.819C539.61 261.033 539.975 253.971 539.985 238.091L540 215.863L544.701 218.844C572.23 236.303 605.045 223.069 613.553 191.076C615.402 184.124 615.593 170.124 613.933 163.295C610.174 147.834 599.392 134.809 586.219 129.814C580.246 127.55 570.184 126.715 562.716 127.865ZM206.2 130.019C205.54 130.679 205 132.508 205 134.083C205 138.721 231.735 222.144 233.678 223.569C234.718 224.332 238.62 224.819 243.691 224.819C250.376 224.819 252.342 224.467 253.75 223.02C254.712 222.03 259.55 209 264.5 194.064C269.45 179.128 273.725 166.889 274 166.866C274.275 166.842 278.325 178.86 283 193.571C288.686 211.465 292.23 221.064 293.705 222.569C295.642 224.547 296.92 224.819 304.263 224.819C309.424 224.819 313.232 224.341 314.223 223.569C316.11 222.1 343 138.157 343 133.737C343 131.427 342.391 130.531 340.25 129.695C336.706 128.309 323.118 129.255 321.442 131.003C320.218 132.28 305 187.124 305 190.258C305 194.602 303.081 190.415 299.18 177.557C287.589 139.356 284.922 131.814 282.428 130.18C279.302 128.132 267.691 129.127 265.161 131.66C264.247 132.575 259.246 146.728 254.046 163.111L244.591 192.9L237.393 165.419C227.862 129.033 228.625 131.087 224.182 129.853C219.092 128.439 207.674 128.545 206.2 130.019ZM576.991 150.204C593.575 158.417 595.734 187.475 580.716 200.33C570.111 209.408 555.064 208.245 545.502 197.61C540.453 191.995 538 185.359 538 177.319C538 155.018 558.26 140.928 576.991 150.204ZM477.644 189.948C477.286 193.374 476.098 197.542 474.95 199.4C472.255 203.76 463.887 207.838 456.202 208.534C445.298 209.523 439 205.449 439 197.407C439 187.535 446.261 184.266 468.892 183.95L478.285 183.819L477.644 189.948Z" fill="black"/>
</svg>
