<svg width="213" height="263" viewBox="0 0 213 263" fill="none" xmlns="http://www.w3.org/2000/svg">
<path fill-rule="evenodd" clip-rule="evenodd" d="M50.0324 0.90391C35.2744 3.80091 26.1854 20.4919 30.4024 36.9529C33.3134 48.3179 40.8474 57.9199 53.0284 65.7939L59.3464 69.8769L31.8404 69.1939L4.33438 68.5109L2.07138 71.3869C-0.0856161 74.1289 -0.175586 74.9549 0.127414 89.1319C0.432414 103.365 0.547407 104.082 2.80741 105.91C4.20441 107.04 6.71936 107.819 8.96836 107.819C11.9844 107.819 13.3034 107.184 15.3574 104.742C17.6664 101.999 17.9464 100.807 17.9464 93.7419V85.8189H106.952H195.958L195.702 165.069L195.446 244.319L121.218 244.819L46.9904 245.319L44.2694 248.041C40.8634 251.447 40.6854 257.002 43.8784 260.196C46.0004 262.318 46.0414 262.319 122.223 262.598C207.37 262.909 204.313 263.138 209.713 256.058L212.446 252.475L212.712 162.979L212.978 73.4819L210.712 71.0199L208.446 68.5579L182.571 69.1999L156.695 69.8419L162.645 65.4619C180.252 52.4999 187.839 37.9289 184.861 22.7919C180.909 2.70591 161.506 -5.5471 141.293 4.2609C129.197 10.1299 121.786 18.3879 112.017 36.8849L107.129 46.1379L102.903 37.7289C91.9694 15.9719 79.9844 4.37192 64.8314 0.878916C59.7184 -0.300084 56.1384 -0.29409 50.0324 0.90391ZM65.2464 21.4669C70.9874 24.4239 75.0214 28.0639 79.4034 34.2449C83.9874 40.7089 89.2794 50.6769 91.5614 57.1439L92.9484 61.0749L88.9824 60.4409C75.1314 58.2259 56.3454 47.6639 50.8374 38.9939C45.8614 31.1629 45.8074 26.7059 50.6324 22.2339C53.7904 19.3079 60.3814 18.9619 65.2464 21.4669ZM164.26 22.2339C175.376 32.5359 158.712 51.3819 131.966 58.7569C121.694 61.5889 121.758 61.6039 123.459 56.7819C128.323 42.9949 140.511 26.2169 148.873 21.7959C154.12 19.0219 161.006 19.2179 164.26 22.2339Z" fill="black"/>
</svg>
